HIERARCHY
ROOT Hips
{
	OFFSET -3.958830 18.904000 13.208200
	CHANNELS 6 Xposition Yposition Zposition Zrotation Yrotation Xrotation 
	JOINT LHipJoint
	{
		OFFSET 0.000000 0.000000 0.000000
		CHANNELS 3 Zrotation Yrotation Xrotation
		JOINT LeftUpLeg
		{
			OFFSET 1.800000 -1.400000 0.085000
			CHANNELS 3 Zrotation Yrotation Xrotation
			JOINT LeftLeg
			{
				OFFSET 2.215000 -6.000000 0.000000
				CHANNELS 3 Zrotation Yrotation Xrotation
				JOINT LeftFoot
				{
					OFFSET 2.500000 -6.900000 0.000000
					CHANNELS 3 Zrotation Yrotation Xrotation
					JOINT LeftToeBase
					{
						OFFSET 0.200000 -0.500000 1.950000
						CHANNELS 3 Zrotation Yrotation Xrotation
						End Site
						{
							OFFSET 0.000000 0.000000 0.000000
						}
					}
				}
			}
		}
	}
	JOINT RHipJoint
	{
		OFFSET 0.000000 0.000000 0.000000
		CHANNELS 3 Zrotation Yrotation Xrotation
		JOINT RightUpLeg
		{
			OFFSET -1.800000 -1.400000 0.085000
			CHANNELS 3 Zrotation Yrotation Xrotation
			JOINT RightLeg
			{
				OFFSET -2.215000 -6.000000 0.000000
				CHANNELS 3 Zrotation Yrotation Xrotation
				JOINT RightFoot
				{
					OFFSET -2.500000 -6.900000 0.000000
					CHANNELS 3 Zrotation Yrotation Xrotation
					JOINT RightToeBase
					{
						OFFSET -0.200000 -0.500000 1.950000
						CHANNELS 3 Zrotation Yrotation Xrotation
						End Site
						{
							OFFSET 0.000000 0.000000 0.000000
						}
					}
				}
			}
		}
	}
	JOINT LowerBack
	{
		OFFSET 0.000000 0.000000 0.000000
		CHANNELS 3 Zrotation Yrotation Xrotation
		JOINT Spine
		{
			OFFSET -0.087000 1.940000 -0.288900
			CHANNELS 3 Zrotation Yrotation Xrotation
			JOINT Spine1
			{
				OFFSET 0.000000 1.950000 0.060000
				CHANNELS 3 Zrotation Yrotation Xrotation
				JOINT Neck
				{
					OFFSET 0.000000 0.000000 0.000000
					CHANNELS 3 Zrotation Yrotation Xrotation
					JOINT Neck1
					{
						OFFSET 0.000000 1.600000 0.340000
						CHANNELS 3 Zrotation Yrotation Xrotation
						JOINT Head
						{
							OFFSET 0.000000 1.667000 -0.240000
							CHANNELS 3 Zrotation Yrotation Xrotation
							End Site
							{
								OFFSET 0.000000 0.000000 0.000000
							}
						}
					}
				}
				JOINT LeftShoulder
				{
					OFFSET 0.000000 0.000000 0.000000
					CHANNELS 3 Zrotation Yrotation Xrotation
					JOINT LeftArm
					{
						OFFSET 2.700000 1.550000 -0.730000
						CHANNELS 3 Zrotation Yrotation Xrotation
						JOINT LeftForeArm
						{
							OFFSET 5.450000 0.000000 0.000000
							CHANNELS 3 Zrotation Yrotation Xrotation
							JOINT LeftHand
							{
								OFFSET 3.450000 0.000000 0.000000
								CHANNELS 3 Zrotation Yrotation Xrotation
								JOINT LeftHandIndex1
								{
									OFFSET 0.750000 0.000000 0.000000
									CHANNELS 3 Zrotation Yrotation Xrotation
									End Site
									{
										OFFSET 0.000000 0.000000 0.000000
									}
								}
							}
						}
					}
				}
				JOINT RightShoulder
				{
					OFFSET 0.000000 0.000000 0.000000
					CHANNELS 3 Zrotation Yrotation Xrotation
					JOINT RightArm
					{
						OFFSET -2.700000 1.550000 -0.730000
						CHANNELS 3 Zrotation Yrotation Xrotation
						JOINT RightForeArm
						{
							OFFSET -5.450000 0.000000 0.000000
							CHANNELS 3 Zrotation Yrotation Xrotation
							JOINT RightHand
							{
								OFFSET -3.450000 0.000000 0.000000
								CHANNELS 3 Zrotation Yrotation Xrotation
								JOINT RightHandIndex1
								{
									OFFSET -0.750000 0.000000 0.000000
									CHANNELS 3 Zrotation Yrotation Xrotation
									End Site
									{
										OFFSET 0.000000 0.000000 0.000000
									}
								}
							}
						}
					}
				}
			}
		}
	}
}
MOTION
Frames: 14
Frame Time: 0.016667
-0.128710 19.596360 -2.788990 -0.788103 25.786632 21.521091 -16.612251 14.798267 5.635560 -0.539633 -10.111501 -37.437791 3.707378 1.180483 2.005958 0.186442 1.133269 3.555716 -2.075160 -1.088310 -1.677820 16.411655 -9.635943 2.965745 3.255378 3.193132 -28.762041 -2.200671 -1.701560 16.203965 -0.002618 -1.077669 2.381096 -1.130010 0.814840 0.513480 0.194763 -11.074500 -10.159997 0.459827 -6.142865 14.724874 3.978180 19.431032 -55.201561 6.991338 -1.012522 -50.513192 3.258617 -8.884403 88.160150 -24.484850 4.237390 19.584290 42.601974 41.628930 2.027458 -5.608949 -12.537683 15.164777 155.456201 -9.162224 -15.649724 -2.872521 3.920567 -0.076180 -0.236010 0.793900 -0.658740 -44.319933 -11.880075 13.433183 13.758020 35.777937 10.790072 -138.505050 -12.955482 22.529793 4.895592 -0.586482 0.154620 0.309890 1.445070 1.479000 
-0.158320 19.617660 -2.856020 -1.094825 27.455063 19.267979 -16.663270 15.022149 5.419499 -0.155685 -9.461604 -37.485033 3.148413 1.518050 5.123014 0.207011 1.190602 3.520381 -2.081840 -1.065920 -1.731770 16.398470 -9.585565 2.832381 3.995301 2.991209 -26.994251 -3.171789 -1.540389 17.242567 -0.041113 -1.169370 2.341039 -1.129490 0.824060 0.499400 0.283481 -11.853226 -9.700168 0.221966 -8.651122 19.999980 1.879931 21.323082 -58.260219 8.751162 -3.016282 -49.365017 -1.392264 -5.267465 90.901664 -22.132880 2.624650 16.522390 40.454221 40.275942 1.497403 -5.216219 -10.828370 17.153001 153.542435 -10.113346 -17.707804 -2.836480 4.034601 -0.041810 -0.281530 0.816950 -0.639400 -43.603336 -6.574401 11.460264 13.470366 39.622324 11.638508 -136.285788 -15.789072 24.170482 4.799755 -0.410302 0.153630 0.343040 1.452470 1.506670 
-0.185910 19.635140 -3.025040 -2.716223 32.754212 13.725108 -16.847588 15.771917 5.083617 0.912225 -8.068890 -37.411010 2.314481 2.313366 9.807065 0.324004 1.578845 3.406334 -2.266650 -1.247430 -1.939010 16.285027 -9.154562 2.602824 5.231922 2.236644 -22.708537 -3.067666 -1.798912 19.436201 -0.039372 -1.433999 2.293175 -1.262790 0.979520 0.475000 0.641203 -13.894022 -8.942872 -2.074125 -14.289215 36.060807 -1.814542 26.647645 -66.462445 12.885807 -6.958514 -46.023525 -14.762563 5.278433 89.625739 -16.209590 -1.410520 11.509490 35.854877 38.721410 1.086082 -6.158153 -7.343284 20.377111 149.984451 -13.298537 -24.888136 -2.869560 4.138102 -0.017110 -0.302040 0.773360 -0.639270 -42.530621 3.963120 10.334492 5.329130 43.536560 3.994517 -134.828301 -19.747499 27.451188 4.870010 -0.033280 0.113330 0.435610 1.563950 1.586430 
-0.300020 19.652990 -3.172150 -3.420968 35.285926 5.253063 -16.557710 16.341937 4.386272 2.306392 -5.323699 -32.581013 -0.329187 3.900099 13.881261 0.677844 2.240190 3.238535 -2.474980 -1.455600 -2.155260 16.571862 -9.312550 2.391537 5.227969 0.689882 -16.328174 -3.005346 -2.236364 23.023955 -0.107300 -2.101523 2.090112 -1.470260 1.123940 0.462720 -0.008850 -13.725626 -7.877828 -12.953296 -16.970160 63.990678 -1.386058 31.135172 -75.034644 17.073724 -11.720933 -42.262526 -30.931603 17.383245 77.131088 -7.026910 -3.946940 3.082130 30.463931 40.753558 -0.449332 -5.750764 -1.036116 21.096324 144.256926 -15.429600 -29.082293 -2.618656 4.346956 -0.053930 -0.366680 0.731450 -0.617160 -45.526420 15.993696 10.573853 -5.709040 42.326876 -9.488173 -127.301719 -25.680412 24.124885 5.081240 -0.045190 0.132260 0.425630 1.603070 1.713370 
-1.023300 19.429040 -3.928420 0.235052 37.605992 -52.873106 -15.581327 16.007435 2.808544 16.990376 10.000870 22.215212 2.826973 6.712634 18.066929 2.475093 6.733063 2.247972 -2.789950 -1.562670 -2.871000 17.560987 -9.197999 3.898751 -2.650453 -1.835360 43.064690 -1.144328 -8.525327 23.581407 -1.253027 -8.082084 0.006020 -1.542040 1.726590 0.510800 -1.934171 -8.847487 -7.613627 -32.230870 2.052752 128.659428 -10.241979 13.426922 -58.399968 18.629490 -18.716673 -29.698577 -43.759512 25.278490 39.552994 19.384550 -17.761890 -13.429720 25.553679 22.299191 -3.957063 -10.030132 26.680860 -5.266154 140.921580 -17.770685 -33.197352 -3.324237 4.174831 -0.604970 -0.228630 0.422430 -0.406130 -59.572886 31.888647 12.452981 -0.801351 13.407643 -30.039556 -121.664228 -34.364377 14.195310 5.952167 -1.902552 0.258300 0.471570 1.686450 2.274640 
-1.270620 19.006200 -4.136540 1.370042 40.672459 -79.336520 -16.033291 15.957425 3.885452 25.696411 7.057239 45.397156 3.062986 9.125697 22.032528 3.200261 8.813898 1.532806 -2.634190 -1.307940 -2.442350 16.779724 -9.177779 4.679077 -7.461080 -7.106681 67.423314 -1.707069 -10.947590 25.210419 -1.867058 -9.499484 -0.612810 -1.553330 1.193990 0.630440 -1.598261 -8.178430 -6.753660 2.260601 -4.760088 118.348266 -13.224993 4.591426 7.815510 11.836680 -27.894773 -1.284715 -46.904304 -5.194137 30.969559 43.445320 -22.155660 -54.725080 17.898430 -57.306557 15.646161 -63.219131 53.744566 -64.092904 135.572064 1.932130 -44.914594 -4.094480 4.795932 -0.357740 -0.501390 0.834270 -0.643450 -43.667581 59.184354 7.119293 11.478480 -50.922692 -29.582433 -111.782671 -16.437484 -0.304041 8.997861 -2.368379 0.444150 0.245950 1.491410 2.103560 
-1.283450 19.023590 -4.099470 -0.561560 42.141268 -75.885318 -16.029189 17.143350 4.287810 24.234614 4.567933 36.291717 2.623788 9.401291 27.662272 3.305272 8.446280 1.714565 -2.779530 -1.396860 -2.233020 16.429452 -9.118390 5.089095 -7.821488 -8.854723 60.594141 -2.068525 -10.729083 27.104909 -1.861592 -9.118401 -0.445251 -1.756380 1.020470 0.750370 -1.954115 -7.889997 -5.539074 7.930230 -6.103968 111.001404 -10.984642 2.918061 11.497113 7.065654 -30.115475 4.904769 -41.690833 -11.854430 28.891475 42.606640 -16.088170 -59.978420 22.683977 -58.647312 16.944246 -63.644337 48.612020 -63.025321 135.078808 -3.535227 -56.449505 -3.739328 4.726780 -0.434560 -0.406470 0.958430 -0.775010 -42.279853 59.424300 9.045521 20.687978 -54.340473 -33.191080 -109.556984 -8.909034 -14.193082 7.387806 -3.405586 0.536680 -0.066080 1.331140 1.975060 
-1.313890 18.969020 -4.114580 -2.019542 42.999281 -75.605432 -16.333943 17.962631 4.294280 24.453646 2.801132 31.471030 3.004128 9.474202 32.040353 3.535220 8.426341 1.807007 -2.788260 -1.329350 -2.166500 16.084528 -8.472978 5.176905 -7.092949 -10.392517 57.895462 -1.712092 -10.932868 29.081711 -1.880311 -9.124399 -0.381362 -1.826810 0.959390 0.816300 -1.157609 -9.116861 -2.488045 17.129586 -10.700376 108.053747 -7.782379 4.514924 10.542017 1.739374 -32.788028 9.016745 -36.353668 -16.680762 26.055368 44.112830 -14.623880 -57.483960 29.988347 -64.589822 14.065333 -60.983272 39.743537 -56.478624 137.649010 -5.628747 -68.833323 -2.951909 4.903416 -0.572240 -0.308450 1.006770 -0.709450 -39.400086 70.140215 1.702604 57.106868 -85.650891 -39.173666 -108.138717 -11.715806 -30.061586 3.107450 -4.665880 0.629130 -0.309950 1.106510 1.985850 
-1.317660 18.929530 -4.120850 -2.467839 41.698248 -74.089479 -15.757059 18.834668 5.038663 24.322207 0.865709 26.559115 1.464168 10.238576 35.509897 3.278311 8.862710 1.784389 -2.997420 -1.601280 -2.254880 16.163668 -8.742580 5.980308 -6.196398 -11.336955 53.299023 -3.613203 -10.200724 31.984183 -1.678284 -9.014555 -0.244623 -1.835730 1.269080 0.756300 -2.436398 -7.101724 -3.729592 30.161051 -11.610756 102.893890 1.232920 2.450639 11.452514 -1.432246 -31.012640 18.417775 -19.367299 -25.637916 12.775573 40.406430 -16.615430 -49.130580 46.772594 -59.345355 12.307965 -59.542817 19.109727 -42.990572 139.051991 -5.913248 -80.670175 -2.792463 4.998701 -0.680680 -0.032310 0.761660 -0.745910 -38.739494 63.614987 -11.305567 -73.360662 -71.262104 144.304093 -128.518897 -40.274734 -50.873527 0.658016 -6.658805 0.410610 -0.133710 1.270610 1.932000 
-1.262280 18.897710 -4.144590 -5.598092 38.845616 -71.947732 -15.676651 17.916182 4.490982 26.124405 -1.427510 21.306956 -2.054321 12.137224 38.447872 2.899859 9.710228 1.489030 -3.089720 -1.785040 -2.406030 16.662099 -8.500543 5.584490 -1.944721 -14.000880 47.742184 -5.983471 -9.110174 34.786497 -1.509987 -8.950905 -0.225019 -1.730310 1.553730 0.720890 -3.029857 -4.340281 -4.231727 36.851823 -14.337954 95.133687 4.022424 -0.445027 17.539031 -1.105164 -28.827572 18.169598 -10.122485 -28.916069 1.069658 35.762230 -18.528270 -43.443360 55.804500 -48.706925 9.065834 -56.248545 8.891332 -35.483348 141.422439 -8.640541 -92.151886 -2.986598 4.891583 -0.711880 0.154560 0.499770 -0.783550 -41.839044 55.871450 -7.244174 -64.244884 -71.268818 164.159980 -147.110558 -47.247181 -74.757903 -3.232225 -4.840575 0.201029 0.072560 1.537910 1.890700 
-1.247790 18.809320 -4.158630 -6.688159 37.080696 -69.519048 -16.308660 17.022561 3.523774 27.584367 -2.299486 17.113841 -3.567061 13.054680 42.047090 3.049042 10.130964 1.343784 -3.079260 -1.742470 -2.388940 16.684057 -7.909492 4.255604 -1.789073 -13.354765 44.439699 -2.474133 -10.798092 38.105697 -1.543095 -9.101337 -0.269150 -1.759030 1.507410 0.746970 -1.815151 -4.894141 -1.951021 32.432714 -14.296788 92.217479 3.250068 1.945664 23.923343 -0.982937 -25.504768 13.055985 -11.686478 -27.083961 0.104560 36.770200 -16.560890 -46.457580 52.749922 -46.063036 7.696129 -49.781841 11.173136 -32.705480 142.158940 -8.328975 -99.563235 -2.457269 4.817555 -0.718250 0.136570 0.546020 -0.782570 -43.319707 57.323904 4.611668 -111.644851 -84.853006 -174.517890 -133.079218 -29.751870 -85.080423 -1.079327 -1.736582 0.256760 0.018500 1.493200 1.895780 
-1.235190 18.739790 -4.209060 -6.906674 33.799603 -69.200207 -15.942516 16.489483 3.809412 29.421431 -2.873911 15.675472 -5.556309 14.023361 43.740473 3.128190 10.381167 1.258552 -3.005770 -1.638460 -2.425060 16.906844 -8.775859 4.329269 -1.468882 -12.222059 42.170597 -2.000751 -11.138525 40.993775 -1.586898 -9.180224 -0.262223 -1.709300 1.518200 0.732170 -2.763201 -2.994155 -5.889908 15.420440 -9.823777 98.816058 -4.907915 -4.907901 23.709253 0.510630 -27.502132 8.193671 -18.184719 -24.425941 1.261884 38.444420 -16.071870 -46.263840 45.664674 -39.721613 12.246322 -52.578605 31.828913 -31.619729 140.975266 -11.808601 -100.370217 -2.703610 4.813898 -0.697510 0.093290 0.572860 -0.708210 -47.268291 35.928048 23.681345 16.611649 -40.951433 3.122687 -128.491637 -9.829838 -87.977232 0.699052 -4.482422 0.277090 0.061360 1.457760 1.942060 
-1.249550 18.707470 -4.182370 -8.271203 37.409039 -70.119999 -15.971266 16.002581 3.278167 26.604683 -3.408391 14.613330 -2.618398 11.965407 46.654852 3.037858 10.057957 1.244696 -3.032550 -1.724350 -2.246980 16.959240 -9.414727 3.944812 -2.967530 -11.910636 42.280496 -0.464784 -12.707814 40.884038 -1.648396 -9.175806 -0.363834 -1.816320 1.306660 0.806980 -1.973718 -5.777325 -6.249875 6.544271 -3.810279 99.483598 1.352625 2.414495 19.507308 -1.531238 -23.983472 10.219529 -19.353561 -22.225966 12.152638 38.840150 -11.080300 -50.585190 39.067344 -48.545927 12.458406 -41.121360 36.935522 -33.102179 138.502155 -14.829800 -93.845175 -3.008860 4.420463 -0.523140 -0.006720 0.716640 -0.865510 -43.034917 43.730018 20.997574 10.532802 -46.988558 -6.902201 -127.522720 2.792614 -81.138773 2.415039 -4.249928 0.297840 -0.096680 1.470480 1.787100 
-1.283880 18.704640 -4.140280 -9.341962 39.634978 -72.283600 -15.961145 15.865918 2.846120 25.139133 -3.178059 15.377484 1.954148 9.230051 47.569707 3.014895 9.627408 1.396496 -3.105090 -1.809810 -2.180540 17.003613 -9.740310 3.873481 -3.964608 -12.507070 44.414856 -0.691056 -12.925146 39.482791 -1.669770 -9.135413 -0.327641 -1.909380 1.281800 0.821550 -1.653786 -6.987160 -6.281530 1.716796 -1.125734 100.479427 3.326468 5.265783 16.170229 -2.344944 -19.157377 12.951948 -16.517538 -21.599253 16.571249 37.675710 -10.018010 -50.439240 35.283173 -54.474143 9.519346 -37.923188 46.145684 -32.884706 137.148762 -15.430623 -86.032426 -3.287340 4.474176 -0.477410 0.003710 0.777120 -0.917770 -41.330543 49.298613 19.454655 11.094490 -51.691899 -9.130586 -125.720890 3.636833 -71.390340 2.864381 -3.872079 0.293590 -0.096760 1.468230 1.745090 
